<mxfile host="app.diagrams.net" modified="2021-08-13T16:05:02.634Z" agent="5.0 (Macintosh; Intel Mac OS X 10_15_7) AppleWebKit/605.1.15 (KHTML, like Gecko) Version/14.1.2 Safari/605.1.15" etag="mxW8vuQGx1RJr8OFL-RY" version="14.9.6" type="github">
  <diagram id="pXy54ETArazOoQPU2dkY" name="Page-1">
    <mxGraphModel dx="1351" dy="921" grid="1" gridSize="10" guides="1" tooltips="1" connect="1" arrows="1" fold="1" page="1" pageScale="1" pageWidth="850" pageHeight="1100" math="0" shadow="0">
      <root>
        <mxCell id="0" />
        <mxCell id="1" parent="0" />
        <mxCell id="K7yA9mf8oS1m1ANkeKUt-1" value="" style="rounded=0;whiteSpace=wrap;html=1;opacity=80;" vertex="1" parent="1">
          <mxGeometry width="1400" height="1680" as="geometry" />
        </mxCell>
        <mxCell id="rP92spbpc-29O7Kb0my3-1" value="Component" style="shape=umlFrame;whiteSpace=wrap;html=1;width=90;height=30;" parent="1" vertex="1">
          <mxGeometry x="560" y="40" width="520" height="1080" as="geometry" />
        </mxCell>
        <mxCell id="rP92spbpc-29O7Kb0my3-6" value="ListInput" style="html=1;" parent="1" vertex="1">
          <mxGeometry x="600" y="290" width="110" height="50" as="geometry" />
        </mxCell>
        <mxCell id="rP92spbpc-29O7Kb0my3-7" value="DelInput" style="html=1;" parent="1" vertex="1">
          <mxGeometry x="600" y="360" width="110" height="50" as="geometry" />
        </mxCell>
        <mxCell id="rP92spbpc-29O7Kb0my3-8" value="ListOutput" style="html=1;" parent="1" vertex="1">
          <mxGeometry x="600" y="430" width="110" height="50" as="geometry" />
        </mxCell>
        <mxCell id="rP92spbpc-29O7Kb0my3-9" value="«interface»&lt;br&gt;&lt;b&gt;Admin&lt;/b&gt;" style="html=1;" parent="1" vertex="1">
          <mxGeometry x="600" y="200" width="110" height="50" as="geometry" />
        </mxCell>
        <mxCell id="rP92spbpc-29O7Kb0my3-13" value="ShortenInput" style="html=1;" parent="1" vertex="1">
          <mxGeometry x="600" y="620" width="110" height="50" as="geometry" />
        </mxCell>
        <mxCell id="rP92spbpc-29O7Kb0my3-14" value="AccessInput" style="html=1;" parent="1" vertex="1">
          <mxGeometry x="600" y="690" width="110" height="50" as="geometry" />
        </mxCell>
        <mxCell id="rP92spbpc-29O7Kb0my3-15" value="ShortenOutput" style="html=1;" parent="1" vertex="1">
          <mxGeometry x="600" y="760" width="110" height="50" as="geometry" />
        </mxCell>
        <mxCell id="rP92spbpc-29O7Kb0my3-16" value="«interface»&lt;br&gt;&lt;b&gt;Shortener&lt;/b&gt;" style="html=1;" parent="1" vertex="1">
          <mxGeometry x="600" y="530" width="110" height="50" as="geometry" />
        </mxCell>
        <mxCell id="rP92spbpc-29O7Kb0my3-21" value="CredentialInput" style="html=1;" parent="1" vertex="1">
          <mxGeometry x="600" y="960" width="110" height="50" as="geometry" />
        </mxCell>
        <mxCell id="rP92spbpc-29O7Kb0my3-22" value="UserOutput" style="html=1;" parent="1" vertex="1">
          <mxGeometry x="600" y="1030" width="110" height="50" as="geometry" />
        </mxCell>
        <mxCell id="rP92spbpc-29O7Kb0my3-23" value="«interface»&lt;br&gt;&lt;b&gt;Auth&lt;/b&gt;" style="html=1;" parent="1" vertex="1">
          <mxGeometry x="600" y="870" width="110" height="50" as="geometry" />
        </mxCell>
        <mxCell id="rP92spbpc-29O7Kb0my3-26" value="Validator" style="shape=module;align=left;spacingLeft=20;align=center;verticalAlign=top;" parent="1" vertex="1">
          <mxGeometry x="760" y="90" width="100" height="50" as="geometry" />
        </mxCell>
        <mxCell id="rP92spbpc-29O7Kb0my3-28" value="«interface»&lt;br&gt;&lt;b&gt;BlacklistRepo&lt;/b&gt;" style="html=1;" parent="1" vertex="1">
          <mxGeometry x="920" y="90" width="110" height="50" as="geometry" />
        </mxCell>
        <mxCell id="rP92spbpc-29O7Kb0my3-20" value="Auth" style="shape=module;align=left;spacingLeft=20;align=center;verticalAlign=top;" parent="1" vertex="1">
          <mxGeometry x="760" y="960" width="100" height="50" as="geometry" />
        </mxCell>
        <mxCell id="rP92spbpc-29O7Kb0my3-25" value="«interface»&lt;br&gt;&lt;b&gt;Validator&lt;/b&gt;" style="html=1;" parent="1" vertex="1">
          <mxGeometry x="755" y="870" width="110" height="50" as="geometry" />
        </mxCell>
        <mxCell id="rP92spbpc-29O7Kb0my3-32" value="" style="endArrow=block;dashed=1;endFill=0;endSize=12;html=1;exitX=0.25;exitY=1;exitDx=0;exitDy=0;entryX=0.25;entryY=0;entryDx=0;entryDy=0;" parent="1" source="rP92spbpc-29O7Kb0my3-26" target="rP92spbpc-29O7Kb0my3-12" edge="1">
          <mxGeometry width="160" relative="1" as="geometry">
            <mxPoint x="940" y="220" as="sourcePoint" />
            <mxPoint x="1100" y="220" as="targetPoint" />
          </mxGeometry>
        </mxCell>
        <mxCell id="rP92spbpc-29O7Kb0my3-33" value="" style="endArrow=block;dashed=1;endFill=0;endSize=12;html=1;exitX=0.5;exitY=1;exitDx=0;exitDy=0;entryX=0.5;entryY=0;entryDx=0;entryDy=0;" parent="1" source="rP92spbpc-29O7Kb0my3-26" target="rP92spbpc-29O7Kb0my3-19" edge="1">
          <mxGeometry width="160" relative="1" as="geometry">
            <mxPoint x="795" y="150" as="sourcePoint" />
            <mxPoint x="797.5" y="210" as="targetPoint" />
          </mxGeometry>
        </mxCell>
        <mxCell id="rP92spbpc-29O7Kb0my3-34" value="" style="endArrow=block;dashed=1;endFill=0;endSize=12;html=1;exitX=0.75;exitY=1;exitDx=0;exitDy=0;entryX=0.75;entryY=0;entryDx=0;entryDy=0;" parent="1" source="rP92spbpc-29O7Kb0my3-26" target="rP92spbpc-29O7Kb0my3-25" edge="1">
          <mxGeometry width="160" relative="1" as="geometry">
            <mxPoint x="820" y="150" as="sourcePoint" />
            <mxPoint x="825" y="540" as="targetPoint" />
          </mxGeometry>
        </mxCell>
        <mxCell id="rP92spbpc-29O7Kb0my3-37" value="" style="endArrow=open;endFill=1;endSize=12;html=1;exitX=0.5;exitY=0;exitDx=0;exitDy=0;" parent="1" source="rP92spbpc-29O7Kb0my3-20" target="rP92spbpc-29O7Kb0my3-25" edge="1">
          <mxGeometry width="160" relative="1" as="geometry">
            <mxPoint x="790" y="1080" as="sourcePoint" />
            <mxPoint x="950" y="1080" as="targetPoint" />
          </mxGeometry>
        </mxCell>
        <mxCell id="rP92spbpc-29O7Kb0my3-38" value="" style="endArrow=open;endFill=1;endSize=12;html=1;entryX=1;entryY=0.5;entryDx=0;entryDy=0;" parent="1" source="rP92spbpc-29O7Kb0my3-20" target="rP92spbpc-29O7Kb0my3-21" edge="1">
          <mxGeometry width="160" relative="1" as="geometry">
            <mxPoint x="760" y="1060" as="sourcePoint" />
            <mxPoint x="920" y="1060" as="targetPoint" />
          </mxGeometry>
        </mxCell>
        <mxCell id="rP92spbpc-29O7Kb0my3-39" value="" style="endArrow=open;endFill=1;endSize=12;html=1;entryX=1;entryY=0.5;entryDx=0;entryDy=0;exitX=0.25;exitY=1;exitDx=0;exitDy=0;" parent="1" source="rP92spbpc-29O7Kb0my3-20" target="rP92spbpc-29O7Kb0my3-22" edge="1">
          <mxGeometry width="160" relative="1" as="geometry">
            <mxPoint x="770" y="995" as="sourcePoint" />
            <mxPoint x="720" y="995" as="targetPoint" />
            <Array as="points">
              <mxPoint x="785" y="1055" />
            </Array>
          </mxGeometry>
        </mxCell>
        <mxCell id="rP92spbpc-29O7Kb0my3-41" value="" style="endArrow=block;dashed=1;endFill=0;endSize=12;html=1;entryX=1;entryY=0.5;entryDx=0;entryDy=0;" parent="1" source="rP92spbpc-29O7Kb0my3-20" target="rP92spbpc-29O7Kb0my3-23" edge="1">
          <mxGeometry width="160" relative="1" as="geometry">
            <mxPoint x="730" y="1130" as="sourcePoint" />
            <mxPoint x="890" y="1130" as="targetPoint" />
            <Array as="points">
              <mxPoint x="740" y="985" />
              <mxPoint x="740" y="895" />
            </Array>
          </mxGeometry>
        </mxCell>
        <mxCell id="rP92spbpc-29O7Kb0my3-43" value="" style="endArrow=block;dashed=1;endFill=0;endSize=12;html=1;exitX=0.25;exitY=0;exitDx=0;exitDy=0;entryX=0.5;entryY=1;entryDx=0;entryDy=0;" parent="1" source="rP92spbpc-29O7Kb0my3-4" target="rP92spbpc-29O7Kb0my3-16" edge="1">
          <mxGeometry width="160" relative="1" as="geometry">
            <mxPoint x="750" y="720" as="sourcePoint" />
            <mxPoint x="910" y="720" as="targetPoint" />
            <Array as="points">
              <mxPoint x="785" y="600" />
              <mxPoint x="655" y="600" />
            </Array>
          </mxGeometry>
        </mxCell>
        <mxCell id="rP92spbpc-29O7Kb0my3-44" value="" style="endArrow=open;endFill=1;endSize=12;html=1;entryX=0.5;entryY=1;entryDx=0;entryDy=0;" parent="1" target="rP92spbpc-29O7Kb0my3-19" edge="1">
          <mxGeometry width="160" relative="1" as="geometry">
            <mxPoint x="810" y="620" as="sourcePoint" />
            <mxPoint x="820" y="930" as="targetPoint" />
          </mxGeometry>
        </mxCell>
        <mxCell id="rP92spbpc-29O7Kb0my3-45" value="" style="endArrow=open;endFill=1;endSize=12;html=1;" parent="1" source="rP92spbpc-29O7Kb0my3-4" target="rP92spbpc-29O7Kb0my3-13" edge="1">
          <mxGeometry width="160" relative="1" as="geometry">
            <mxPoint x="770" y="995" as="sourcePoint" />
            <mxPoint x="720" y="995" as="targetPoint" />
          </mxGeometry>
        </mxCell>
        <mxCell id="rP92spbpc-29O7Kb0my3-46" value="" style="endArrow=open;endFill=1;endSize=12;html=1;exitX=0.25;exitY=1;exitDx=0;exitDy=0;entryX=1;entryY=0.5;entryDx=0;entryDy=0;" parent="1" source="rP92spbpc-29O7Kb0my3-4" target="rP92spbpc-29O7Kb0my3-14" edge="1">
          <mxGeometry width="160" relative="1" as="geometry">
            <mxPoint x="770" y="655" as="sourcePoint" />
            <mxPoint x="720" y="715" as="targetPoint" />
            <Array as="points">
              <mxPoint x="785" y="715" />
            </Array>
          </mxGeometry>
        </mxCell>
        <mxCell id="rP92spbpc-29O7Kb0my3-47" value="" style="endArrow=open;endFill=1;endSize=12;html=1;exitX=0.25;exitY=1;exitDx=0;exitDy=0;entryX=1;entryY=0.5;entryDx=0;entryDy=0;" parent="1" source="rP92spbpc-29O7Kb0my3-4" target="rP92spbpc-29O7Kb0my3-15" edge="1">
          <mxGeometry width="160" relative="1" as="geometry">
            <mxPoint x="770" y="655" as="sourcePoint" />
            <mxPoint x="720" y="655" as="targetPoint" />
            <Array as="points">
              <mxPoint x="785" y="785" />
            </Array>
          </mxGeometry>
        </mxCell>
        <mxCell id="rP92spbpc-29O7Kb0my3-19" value="«interface»&lt;br&gt;&lt;b&gt;Validator&lt;/b&gt;" style="html=1;opacity=80;" parent="1" vertex="1">
          <mxGeometry x="755" y="530" width="110" height="50" as="geometry" />
        </mxCell>
        <mxCell id="rP92spbpc-29O7Kb0my3-4" value="Shortener" style="shape=module;align=left;spacingLeft=20;align=center;verticalAlign=top;opacity=80;" parent="1" vertex="1">
          <mxGeometry x="760" y="620" width="100" height="50" as="geometry" />
        </mxCell>
        <mxCell id="rP92spbpc-29O7Kb0my3-2" value="Admin" style="shape=module;align=left;spacingLeft=20;align=center;verticalAlign=top;opacity=80;" parent="1" vertex="1">
          <mxGeometry x="760" y="290" width="100" height="50" as="geometry" />
        </mxCell>
        <mxCell id="rP92spbpc-29O7Kb0my3-12" value="«interface»&lt;br&gt;&lt;b&gt;Validator&lt;/b&gt;" style="html=1;opacity=80;" parent="1" vertex="1">
          <mxGeometry x="757" y="200" width="110" height="50" as="geometry" />
        </mxCell>
        <mxCell id="rP92spbpc-29O7Kb0my3-50" value="" style="endArrow=open;endFill=1;endSize=12;html=1;entryX=0.25;entryY=1;entryDx=0;entryDy=0;exitX=0.25;exitY=0;exitDx=0;exitDy=0;" parent="1" source="rP92spbpc-29O7Kb0my3-2" target="rP92spbpc-29O7Kb0my3-12" edge="1">
          <mxGeometry width="160" relative="1" as="geometry">
            <mxPoint x="820" y="630" as="sourcePoint" />
            <mxPoint x="820" y="590" as="targetPoint" />
          </mxGeometry>
        </mxCell>
        <mxCell id="rP92spbpc-29O7Kb0my3-51" value="" style="endArrow=open;endFill=1;endSize=12;html=1;" parent="1" source="rP92spbpc-29O7Kb0my3-2" target="rP92spbpc-29O7Kb0my3-6" edge="1">
          <mxGeometry width="160" relative="1" as="geometry">
            <mxPoint x="795" y="300" as="sourcePoint" />
            <mxPoint x="794.5" y="260" as="targetPoint" />
          </mxGeometry>
        </mxCell>
        <mxCell id="rP92spbpc-29O7Kb0my3-52" value="" style="endArrow=open;endFill=1;endSize=12;html=1;exitX=0.25;exitY=1;exitDx=0;exitDy=0;entryX=1;entryY=0.5;entryDx=0;entryDy=0;" parent="1" source="rP92spbpc-29O7Kb0my3-2" target="rP92spbpc-29O7Kb0my3-7" edge="1">
          <mxGeometry width="160" relative="1" as="geometry">
            <mxPoint x="770" y="325" as="sourcePoint" />
            <mxPoint x="720" y="325" as="targetPoint" />
            <Array as="points">
              <mxPoint x="785" y="385" />
            </Array>
          </mxGeometry>
        </mxCell>
        <mxCell id="rP92spbpc-29O7Kb0my3-53" value="" style="endArrow=open;endFill=1;endSize=12;html=1;exitX=0.25;exitY=1;exitDx=0;exitDy=0;entryX=1;entryY=0.5;entryDx=0;entryDy=0;" parent="1" source="rP92spbpc-29O7Kb0my3-2" target="rP92spbpc-29O7Kb0my3-8" edge="1">
          <mxGeometry width="160" relative="1" as="geometry">
            <mxPoint x="770" y="325" as="sourcePoint" />
            <mxPoint x="720" y="325" as="targetPoint" />
            <Array as="points">
              <mxPoint x="785" y="455" />
            </Array>
          </mxGeometry>
        </mxCell>
        <mxCell id="rP92spbpc-29O7Kb0my3-56" value="" style="endArrow=open;endFill=1;endSize=12;html=1;entryX=0;entryY=0.5;entryDx=0;entryDy=0;exitX=1;exitY=0.5;exitDx=0;exitDy=0;" parent="1" source="rP92spbpc-29O7Kb0my3-26" target="rP92spbpc-29O7Kb0my3-28" edge="1">
          <mxGeometry width="160" relative="1" as="geometry">
            <mxPoint x="805" y="310" as="sourcePoint" />
            <mxPoint x="804.5" y="270" as="targetPoint" />
          </mxGeometry>
        </mxCell>
        <mxCell id="rP92spbpc-29O7Kb0my3-68" value="Database" style="shape=umlFrame;whiteSpace=wrap;html=1;width=90;height=30;" parent="1" vertex="1">
          <mxGeometry x="880" y="1160" width="190" height="480" as="geometry" />
        </mxCell>
        <mxCell id="rP92spbpc-29O7Kb0my3-71" value="BlacklistStaticRepo" style="shape=module;align=left;spacingLeft=20;align=center;verticalAlign=top;opacity=80;" parent="1" vertex="1">
          <mxGeometry x="900" y="1550" width="150" height="50" as="geometry" />
        </mxCell>
        <mxCell id="rP92spbpc-29O7Kb0my3-84" value="" style="endArrow=open;endFill=1;endSize=12;html=1;" parent="1" source="rP92spbpc-29O7Kb0my3-20" target="rP92spbpc-29O7Kb0my3-24" edge="1">
          <mxGeometry width="160" relative="1" as="geometry">
            <mxPoint x="850" y="1060" as="sourcePoint" />
            <mxPoint x="1010" y="1060" as="targetPoint" />
          </mxGeometry>
        </mxCell>
        <mxCell id="rP92spbpc-29O7Kb0my3-88" value="" style="endArrow=block;dashed=1;endFill=0;endSize=12;html=1;exitX=0.25;exitY=0;exitDx=0;exitDy=0;entryX=0.25;entryY=1;entryDx=0;entryDy=0;" parent="1" source="rP92spbpc-29O7Kb0my3-72" target="rP92spbpc-29O7Kb0my3-24" edge="1">
          <mxGeometry width="160" relative="1" as="geometry">
            <mxPoint x="720" y="1580" as="sourcePoint" />
            <mxPoint x="950" y="1010" as="targetPoint" />
          </mxGeometry>
        </mxCell>
        <mxCell id="rP92spbpc-29O7Kb0my3-89" value="" style="endArrow=block;dashed=1;endFill=0;endSize=12;html=1;entryX=0.5;entryY=1;entryDx=0;entryDy=0;exitX=0.5;exitY=0;exitDx=0;exitDy=0;" parent="1" source="rP92spbpc-29O7Kb0my3-70" target="rP92spbpc-29O7Kb0my3-18" edge="1">
          <mxGeometry width="160" relative="1" as="geometry">
            <mxPoint x="680" y="1550" as="sourcePoint" />
            <mxPoint x="840" y="1550" as="targetPoint" />
          </mxGeometry>
        </mxCell>
        <mxCell id="rP92spbpc-29O7Kb0my3-90" value="" style="endArrow=block;dashed=1;endFill=0;endSize=12;html=1;entryX=0.75;entryY=1;entryDx=0;entryDy=0;exitX=0.75;exitY=0;exitDx=0;exitDy=0;" parent="1" source="rP92spbpc-29O7Kb0my3-69" target="rP92spbpc-29O7Kb0my3-17" edge="1">
          <mxGeometry width="160" relative="1" as="geometry">
            <mxPoint x="860" y="1200" as="sourcePoint" />
            <mxPoint x="1020" y="1200" as="targetPoint" />
          </mxGeometry>
        </mxCell>
        <mxCell id="rP92spbpc-29O7Kb0my3-91" value="" style="endArrow=block;dashed=1;endFill=0;endSize=12;html=1;exitX=1;exitY=0.5;exitDx=0;exitDy=0;entryX=1;entryY=0.5;entryDx=0;entryDy=0;" parent="1" source="rP92spbpc-29O7Kb0my3-71" target="rP92spbpc-29O7Kb0my3-28" edge="1">
          <mxGeometry width="160" relative="1" as="geometry">
            <mxPoint x="860" y="1110" as="sourcePoint" />
            <mxPoint x="1020" y="1110" as="targetPoint" />
            <Array as="points">
              <mxPoint x="1120" y="1575" />
              <mxPoint x="1120" y="115" />
            </Array>
          </mxGeometry>
        </mxCell>
        <mxCell id="rP92spbpc-29O7Kb0my3-18" value="«interface»&lt;br&gt;&lt;b&gt;URLCache&lt;/b&gt;" style="html=1;opacity=80;" parent="1" vertex="1">
          <mxGeometry x="920" y="620" width="110" height="50" as="geometry" />
        </mxCell>
        <mxCell id="rP92spbpc-29O7Kb0my3-24" value="«interface»&lt;br&gt;&lt;b&gt;UserRepo&lt;/b&gt;" style="html=1;opacity=80;" parent="1" vertex="1">
          <mxGeometry x="909" y="960" width="110" height="50" as="geometry" />
        </mxCell>
        <mxCell id="rP92spbpc-29O7Kb0my3-17" value="«interface»&lt;br&gt;&lt;b&gt;URLRepo&lt;/b&gt;" style="html=1;opacity=80;" parent="1" vertex="1">
          <mxGeometry x="929" y="530" width="110" height="50" as="geometry" />
        </mxCell>
        <mxCell id="rP92spbpc-29O7Kb0my3-69" value="URLMongoDBRepo" style="shape=module;align=left;spacingLeft=20;align=center;verticalAlign=top;opacity=80;" parent="1" vertex="1">
          <mxGeometry x="900" y="1450" width="150" height="50" as="geometry" />
        </mxCell>
        <mxCell id="rP92spbpc-29O7Kb0my3-72" value="UserStaticRepo" style="shape=module;align=left;spacingLeft=20;align=center;verticalAlign=top;opacity=80;" parent="1" vertex="1">
          <mxGeometry x="900" y="1230" width="150" height="50" as="geometry" />
        </mxCell>
        <mxCell id="rP92spbpc-29O7Kb0my3-70" value="URLRedisCache" style="shape=module;align=left;spacingLeft=20;align=center;verticalAlign=top;opacity=80;" parent="1" vertex="1">
          <mxGeometry x="900" y="1340" width="150" height="50" as="geometry" />
        </mxCell>
        <mxCell id="rP92spbpc-29O7Kb0my3-92" value="" style="endArrow=block;dashed=1;endFill=0;endSize=12;html=1;exitX=1;exitY=0.5;exitDx=0;exitDy=0;entryX=1;entryY=0.5;entryDx=0;entryDy=0;" parent="1" source="rP92spbpc-29O7Kb0my3-69" target="rP92spbpc-29O7Kb0my3-10" edge="1">
          <mxGeometry width="160" relative="1" as="geometry">
            <mxPoint x="860" y="1380" as="sourcePoint" />
            <mxPoint x="1020" y="1380" as="targetPoint" />
            <Array as="points">
              <mxPoint x="1100" y="1475" />
              <mxPoint x="1100" y="315" />
            </Array>
          </mxGeometry>
        </mxCell>
        <mxCell id="rP92spbpc-29O7Kb0my3-101" value="Controller" style="shape=umlFrame;whiteSpace=wrap;html=1;width=90;height=30;" parent="1" vertex="1">
          <mxGeometry x="280" y="200" width="170" height="240" as="geometry" />
        </mxCell>
        <mxCell id="rP92spbpc-29O7Kb0my3-102" value="Admin" style="html=1;" parent="1" vertex="1">
          <mxGeometry x="310" y="260" width="110" height="50" as="geometry" />
        </mxCell>
        <mxCell id="rP92spbpc-29O7Kb0my3-103" value="Shortener" style="html=1;" parent="1" vertex="1">
          <mxGeometry x="310" y="360" width="110" height="50" as="geometry" />
        </mxCell>
        <mxCell id="rP92spbpc-29O7Kb0my3-104" value="" style="endArrow=open;endFill=1;endSize=12;html=1;exitX=1;exitY=0.5;exitDx=0;exitDy=0;entryX=0;entryY=0.5;entryDx=0;entryDy=0;" parent="1" source="rP92spbpc-29O7Kb0my3-102" target="rP92spbpc-29O7Kb0my3-9" edge="1">
          <mxGeometry width="160" relative="1" as="geometry">
            <mxPoint x="350" y="650" as="sourcePoint" />
            <mxPoint x="510" y="650" as="targetPoint" />
            <Array as="points">
              <mxPoint x="510" y="285" />
              <mxPoint x="510" y="225" />
            </Array>
          </mxGeometry>
        </mxCell>
        <mxCell id="rP92spbpc-29O7Kb0my3-105" value="" style="endArrow=open;endFill=1;endSize=12;html=1;exitX=1;exitY=0.5;exitDx=0;exitDy=0;entryX=0;entryY=0.5;entryDx=0;entryDy=0;" parent="1" source="rP92spbpc-29O7Kb0my3-102" target="rP92spbpc-29O7Kb0my3-6" edge="1">
          <mxGeometry width="160" relative="1" as="geometry">
            <mxPoint x="350" y="510" as="sourcePoint" />
            <mxPoint x="510" y="510" as="targetPoint" />
            <Array as="points">
              <mxPoint x="510" y="285" />
              <mxPoint x="510" y="315" />
            </Array>
          </mxGeometry>
        </mxCell>
        <mxCell id="rP92spbpc-29O7Kb0my3-106" value="" style="endArrow=open;endFill=1;endSize=12;html=1;exitX=1;exitY=0.5;exitDx=0;exitDy=0;entryX=0;entryY=0.5;entryDx=0;entryDy=0;" parent="1" source="rP92spbpc-29O7Kb0my3-102" target="rP92spbpc-29O7Kb0my3-8" edge="1">
          <mxGeometry width="160" relative="1" as="geometry">
            <mxPoint x="350" y="510" as="sourcePoint" />
            <mxPoint x="510" y="510" as="targetPoint" />
            <Array as="points">
              <mxPoint x="510" y="285" />
              <mxPoint x="510" y="455" />
            </Array>
          </mxGeometry>
        </mxCell>
        <mxCell id="rP92spbpc-29O7Kb0my3-107" value="" style="endArrow=open;endFill=1;endSize=12;html=1;exitX=1;exitY=0.5;exitDx=0;exitDy=0;entryX=0;entryY=0.5;entryDx=0;entryDy=0;" parent="1" source="rP92spbpc-29O7Kb0my3-102" target="rP92spbpc-29O7Kb0my3-7" edge="1">
          <mxGeometry width="160" relative="1" as="geometry">
            <mxPoint x="350" y="510" as="sourcePoint" />
            <mxPoint x="510" y="510" as="targetPoint" />
            <Array as="points">
              <mxPoint x="510" y="285" />
              <mxPoint x="510" y="385" />
            </Array>
          </mxGeometry>
        </mxCell>
        <mxCell id="rP92spbpc-29O7Kb0my3-109" value="" style="endArrow=block;dashed=1;endFill=0;endSize=12;html=1;entryX=1;entryY=0.5;entryDx=0;entryDy=0;" parent="1" source="rP92spbpc-29O7Kb0my3-2" target="rP92spbpc-29O7Kb0my3-9" edge="1">
          <mxGeometry width="160" relative="1" as="geometry">
            <mxPoint x="340" y="400" as="sourcePoint" />
            <mxPoint x="500" y="400" as="targetPoint" />
            <Array as="points">
              <mxPoint x="740" y="315" />
              <mxPoint x="740" y="225" />
            </Array>
          </mxGeometry>
        </mxCell>
        <mxCell id="rP92spbpc-29O7Kb0my3-110" value="" style="endArrow=open;endFill=1;endSize=12;html=1;" parent="1" source="rP92spbpc-29O7Kb0my3-2" target="rP92spbpc-29O7Kb0my3-10" edge="1">
          <mxGeometry width="160" relative="1" as="geometry">
            <mxPoint x="570" y="460" as="sourcePoint" />
            <mxPoint x="730" y="460" as="targetPoint" />
          </mxGeometry>
        </mxCell>
        <mxCell id="rP92spbpc-29O7Kb0my3-113" value="" style="endArrow=open;endFill=1;endSize=12;html=1;exitX=0.75;exitY=1;exitDx=0;exitDy=0;entryX=0.5;entryY=0;entryDx=0;entryDy=0;" parent="1" source="rP92spbpc-29O7Kb0my3-2" target="rP92spbpc-29O7Kb0my3-59" edge="1">
          <mxGeometry width="160" relative="1" as="geometry">
            <mxPoint x="750" y="540" as="sourcePoint" />
            <mxPoint x="910" y="540" as="targetPoint" />
            <Array as="points">
              <mxPoint x="835" y="420" />
              <mxPoint x="1270" y="420" />
            </Array>
          </mxGeometry>
        </mxCell>
        <mxCell id="rP92spbpc-29O7Kb0my3-10" value="«interface»&lt;br&gt;&lt;b&gt;URLRepo&lt;/b&gt;" style="html=1;opacity=80;" parent="1" vertex="1">
          <mxGeometry x="920" y="290" width="110" height="50" as="geometry" />
        </mxCell>
        <mxCell id="rP92spbpc-29O7Kb0my3-114" value="" style="endArrow=open;endFill=1;endSize=12;html=1;exitX=0.75;exitY=1;exitDx=0;exitDy=0;entryX=0.75;entryY=0;entryDx=0;entryDy=0;" parent="1" source="rP92spbpc-29O7Kb0my3-2" target="rP92spbpc-29O7Kb0my3-60" edge="1">
          <mxGeometry width="160" relative="1" as="geometry">
            <mxPoint x="740" y="600" as="sourcePoint" />
            <mxPoint x="1200" y="800" as="targetPoint" />
            <Array as="points">
              <mxPoint x="835" y="420" />
              <mxPoint x="1298" y="420" />
            </Array>
          </mxGeometry>
        </mxCell>
        <mxCell id="rP92spbpc-29O7Kb0my3-115" value="" style="endArrow=open;endFill=1;endSize=12;html=1;exitX=1;exitY=0.5;exitDx=0;exitDy=0;entryX=0;entryY=0.5;entryDx=0;entryDy=0;" parent="1" source="rP92spbpc-29O7Kb0my3-4" target="rP92spbpc-29O7Kb0my3-17" edge="1">
          <mxGeometry width="160" relative="1" as="geometry">
            <mxPoint x="740" y="720" as="sourcePoint" />
            <mxPoint x="900" y="720" as="targetPoint" />
            <Array as="points">
              <mxPoint x="890" y="645" />
              <mxPoint x="890" y="555" />
            </Array>
          </mxGeometry>
        </mxCell>
        <mxCell id="rP92spbpc-29O7Kb0my3-116" value="" style="endArrow=open;endFill=1;endSize=12;html=1;exitX=1;exitY=0.5;exitDx=0;exitDy=0;entryX=0;entryY=0.5;entryDx=0;entryDy=0;" parent="1" source="rP92spbpc-29O7Kb0my3-4" target="rP92spbpc-29O7Kb0my3-18" edge="1">
          <mxGeometry width="160" relative="1" as="geometry">
            <mxPoint x="740" y="720" as="sourcePoint" />
            <mxPoint x="900" y="720" as="targetPoint" />
          </mxGeometry>
        </mxCell>
        <mxCell id="rP92spbpc-29O7Kb0my3-117" value="" style="endArrow=open;endFill=1;endSize=12;html=1;exitX=0.5;exitY=1;exitDx=0;exitDy=0;" parent="1" target="rP92spbpc-29O7Kb0my3-59" edge="1">
          <mxGeometry width="160" relative="1" as="geometry">
            <mxPoint x="810" y="669.9999999999998" as="sourcePoint" />
            <mxPoint x="1265" y="605.0000000000002" as="targetPoint" />
            <Array as="points">
              <mxPoint x="810" y="720" />
              <mxPoint x="1170" y="720" />
              <mxPoint x="1170" y="605" />
            </Array>
          </mxGeometry>
        </mxCell>
        <mxCell id="rP92spbpc-29O7Kb0my3-118" value="" style="endArrow=open;endFill=1;endSize=12;html=1;entryX=0;entryY=0.5;entryDx=0;entryDy=0;exitX=0.5;exitY=1;exitDx=0;exitDy=0;" parent="1" source="rP92spbpc-29O7Kb0my3-4" target="rP92spbpc-29O7Kb0my3-60" edge="1">
          <mxGeometry width="160" relative="1" as="geometry">
            <mxPoint x="810" y="670" as="sourcePoint" />
            <mxPoint x="900" y="670" as="targetPoint" />
            <Array as="points">
              <mxPoint x="810" y="720" />
            </Array>
          </mxGeometry>
        </mxCell>
        <mxCell id="rP92spbpc-29O7Kb0my3-119" value="" style="endArrow=open;endFill=1;endSize=12;html=1;exitX=0.5;exitY=1;exitDx=0;exitDy=0;entryX=0.5;entryY=1;entryDx=0;entryDy=0;" parent="1" source="rP92spbpc-29O7Kb0my3-20" target="rP92spbpc-29O7Kb0my3-61" edge="1">
          <mxGeometry width="160" relative="1" as="geometry">
            <mxPoint x="880" y="880" as="sourcePoint" />
            <mxPoint x="1040" y="880" as="targetPoint" />
            <Array as="points">
              <mxPoint x="810" y="1050" />
              <mxPoint x="1270" y="1050" />
            </Array>
          </mxGeometry>
        </mxCell>
        <mxCell id="rP92spbpc-29O7Kb0my3-120" value="" style="endArrow=open;endFill=1;endSize=12;html=1;exitX=1;exitY=0.5;exitDx=0;exitDy=0;" parent="1" source="rP92spbpc-29O7Kb0my3-72" target="rP92spbpc-29O7Kb0my3-61" edge="1">
          <mxGeometry width="160" relative="1" as="geometry">
            <mxPoint x="880" y="1000" as="sourcePoint" />
            <mxPoint x="1040" y="1000" as="targetPoint" />
            <Array as="points">
              <mxPoint x="1270" y="1255" />
            </Array>
          </mxGeometry>
        </mxCell>
        <mxCell id="rP92spbpc-29O7Kb0my3-121" value="" style="endArrow=open;endFill=1;endSize=12;html=1;exitX=1;exitY=0.5;exitDx=0;exitDy=0;entryX=0.75;entryY=1;entryDx=0;entryDy=0;" parent="1" source="rP92spbpc-29O7Kb0my3-70" target="rP92spbpc-29O7Kb0my3-60" edge="1">
          <mxGeometry width="160" relative="1" as="geometry">
            <mxPoint x="880" y="1130" as="sourcePoint" />
            <mxPoint x="1040" y="1130" as="targetPoint" />
            <Array as="points">
              <mxPoint x="1298" y="1365" />
            </Array>
          </mxGeometry>
        </mxCell>
        <mxCell id="rP92spbpc-29O7Kb0my3-122" value="" style="endArrow=open;endFill=1;endSize=12;html=1;exitX=1;exitY=0.5;exitDx=0;exitDy=0;entryX=0.75;entryY=1;entryDx=0;entryDy=0;" parent="1" source="rP92spbpc-29O7Kb0my3-69" target="rP92spbpc-29O7Kb0my3-60" edge="1">
          <mxGeometry width="160" relative="1" as="geometry">
            <mxPoint x="880" y="1220" as="sourcePoint" />
            <mxPoint x="1300" y="738.5714285714286" as="targetPoint" />
            <Array as="points">
              <mxPoint x="1300" y="1475" />
            </Array>
          </mxGeometry>
        </mxCell>
        <mxCell id="rP92spbpc-29O7Kb0my3-59" value="Error" style="html=1;opacity=80;" parent="1" vertex="1">
          <mxGeometry x="1215" y="580" width="110" height="50" as="geometry" />
        </mxCell>
        <mxCell id="rP92spbpc-29O7Kb0my3-123" value="" style="endArrow=open;endFill=1;endSize=12;html=1;exitX=0.5;exitY=1;exitDx=0;exitDy=0;entryX=0;entryY=0.5;entryDx=0;entryDy=0;" parent="1" source="rP92spbpc-29O7Kb0my3-103" target="rP92spbpc-29O7Kb0my3-16" edge="1">
          <mxGeometry width="160" relative="1" as="geometry">
            <mxPoint x="680" y="670" as="sourcePoint" />
            <mxPoint x="840" y="670" as="targetPoint" />
            <Array as="points">
              <mxPoint x="365" y="555" />
            </Array>
          </mxGeometry>
        </mxCell>
        <mxCell id="rP92spbpc-29O7Kb0my3-124" value="" style="endArrow=open;endFill=1;endSize=12;html=1;exitX=0.5;exitY=1;exitDx=0;exitDy=0;entryX=0;entryY=0.5;entryDx=0;entryDy=0;" parent="1" source="rP92spbpc-29O7Kb0my3-103" target="rP92spbpc-29O7Kb0my3-13" edge="1">
          <mxGeometry width="160" relative="1" as="geometry">
            <mxPoint x="680" y="670" as="sourcePoint" />
            <mxPoint x="840" y="670" as="targetPoint" />
            <Array as="points">
              <mxPoint x="365" y="645" />
            </Array>
          </mxGeometry>
        </mxCell>
        <mxCell id="rP92spbpc-29O7Kb0my3-125" value="" style="endArrow=open;endFill=1;endSize=12;html=1;exitX=0.5;exitY=1;exitDx=0;exitDy=0;entryX=0;entryY=0.5;entryDx=0;entryDy=0;" parent="1" source="rP92spbpc-29O7Kb0my3-103" target="rP92spbpc-29O7Kb0my3-14" edge="1">
          <mxGeometry width="160" relative="1" as="geometry">
            <mxPoint x="680" y="670" as="sourcePoint" />
            <mxPoint x="840" y="670" as="targetPoint" />
            <Array as="points">
              <mxPoint x="365" y="715" />
            </Array>
          </mxGeometry>
        </mxCell>
        <mxCell id="rP92spbpc-29O7Kb0my3-126" value="" style="endArrow=open;endFill=1;endSize=12;html=1;exitX=0.5;exitY=1;exitDx=0;exitDy=0;entryX=0;entryY=0.5;entryDx=0;entryDy=0;" parent="1" source="rP92spbpc-29O7Kb0my3-103" target="rP92spbpc-29O7Kb0my3-15" edge="1">
          <mxGeometry width="160" relative="1" as="geometry">
            <mxPoint x="680" y="670" as="sourcePoint" />
            <mxPoint x="840" y="670" as="targetPoint" />
            <Array as="points">
              <mxPoint x="365" y="785" />
            </Array>
          </mxGeometry>
        </mxCell>
        <mxCell id="rP92spbpc-29O7Kb0my3-127" value="Middleware" style="shape=umlFrame;whiteSpace=wrap;html=1;width=90;height=30;" parent="1" vertex="1">
          <mxGeometry x="280" y="900" width="170" height="150" as="geometry" />
        </mxCell>
        <mxCell id="rP92spbpc-29O7Kb0my3-128" value="Auth" style="html=1;fillColor=none;opacity=80;" parent="1" vertex="1">
          <mxGeometry x="310" y="960" width="110" height="50" as="geometry" />
        </mxCell>
        <mxCell id="rP92spbpc-29O7Kb0my3-129" value="" style="endArrow=open;endFill=1;endSize=12;html=1;exitX=1;exitY=0.5;exitDx=0;exitDy=0;entryX=0;entryY=0.5;entryDx=0;entryDy=0;" parent="1" source="rP92spbpc-29O7Kb0my3-128" target="rP92spbpc-29O7Kb0my3-23" edge="1">
          <mxGeometry width="160" relative="1" as="geometry">
            <mxPoint x="440" y="1170" as="sourcePoint" />
            <mxPoint x="600" y="1170" as="targetPoint" />
            <Array as="points">
              <mxPoint x="510" y="985" />
              <mxPoint x="510" y="895" />
            </Array>
          </mxGeometry>
        </mxCell>
        <mxCell id="rP92spbpc-29O7Kb0my3-132" value="" style="endArrow=open;endFill=1;endSize=12;html=1;exitX=1;exitY=0.5;exitDx=0;exitDy=0;entryX=0;entryY=0.5;entryDx=0;entryDy=0;" parent="1" source="rP92spbpc-29O7Kb0my3-128" target="rP92spbpc-29O7Kb0my3-21" edge="1">
          <mxGeometry width="160" relative="1" as="geometry">
            <mxPoint x="440" y="940" as="sourcePoint" />
            <mxPoint x="600" y="940" as="targetPoint" />
          </mxGeometry>
        </mxCell>
        <mxCell id="rP92spbpc-29O7Kb0my3-133" value="" style="endArrow=open;endFill=1;endSize=12;html=1;exitX=1;exitY=0.5;exitDx=0;exitDy=0;entryX=0;entryY=0.5;entryDx=0;entryDy=0;" parent="1" source="rP92spbpc-29O7Kb0my3-128" target="rP92spbpc-29O7Kb0my3-22" edge="1">
          <mxGeometry width="160" relative="1" as="geometry">
            <mxPoint x="440" y="940" as="sourcePoint" />
            <mxPoint x="600" y="940" as="targetPoint" />
            <Array as="points">
              <mxPoint x="510" y="985" />
              <mxPoint x="510" y="1055" />
            </Array>
          </mxGeometry>
        </mxCell>
        <mxCell id="rP92spbpc-29O7Kb0my3-136" value="Error" style="html=1;" parent="1" vertex="1">
          <mxGeometry x="70" y="820" width="110" height="50" as="geometry" />
        </mxCell>
        <mxCell id="rP92spbpc-29O7Kb0my3-137" value="" style="endArrow=open;endFill=1;endSize=12;html=1;exitX=1;exitY=0.5;exitDx=0;exitDy=0;entryX=0.25;entryY=1;entryDx=0;entryDy=0;" parent="1" source="rP92spbpc-29O7Kb0my3-136" target="rP92spbpc-29O7Kb0my3-59" edge="1">
          <mxGeometry width="160" relative="1" as="geometry">
            <mxPoint x="830" y="610" as="sourcePoint" />
            <mxPoint x="380" y="845" as="targetPoint" />
            <Array as="points">
              <mxPoint x="1243" y="840" />
            </Array>
          </mxGeometry>
        </mxCell>
        <mxCell id="rP92spbpc-29O7Kb0my3-61" value="User" style="html=1;opacity=80;" parent="1" vertex="1">
          <mxGeometry x="1215" y="800" width="110" height="50" as="geometry" />
        </mxCell>
        <mxCell id="rP92spbpc-29O7Kb0my3-60" value="URL" style="html=1;opacity=80;" parent="1" vertex="1">
          <mxGeometry x="1215" y="694" width="110" height="50" as="geometry" />
        </mxCell>
        <mxCell id="rP92spbpc-29O7Kb0my3-57" value="Entity" style="shape=umlFrame;whiteSpace=wrap;html=1;width=90;height=30;opacity=80;" parent="1" vertex="1">
          <mxGeometry x="1190" y="530" width="160" height="370" as="geometry" />
        </mxCell>
        <mxCell id="rP92spbpc-29O7Kb0my3-140" value="" style="endArrow=open;endFill=1;endSize=12;html=1;exitX=0;exitY=0.5;exitDx=0;exitDy=0;entryX=0.75;entryY=0;entryDx=0;entryDy=0;" parent="1" source="rP92spbpc-29O7Kb0my3-102" target="rP92spbpc-29O7Kb0my3-136" edge="1">
          <mxGeometry width="160" relative="1" as="geometry">
            <mxPoint x="60" y="320" as="sourcePoint" />
            <mxPoint x="220" y="320" as="targetPoint" />
            <Array as="points">
              <mxPoint x="153" y="285" />
            </Array>
          </mxGeometry>
        </mxCell>
        <mxCell id="rP92spbpc-29O7Kb0my3-141" value="" style="endArrow=open;endFill=1;endSize=12;html=1;exitX=0.25;exitY=1;exitDx=0;exitDy=0;entryX=1;entryY=0.5;entryDx=0;entryDy=0;" parent="1" source="rP92spbpc-29O7Kb0my3-103" target="rP92spbpc-29O7Kb0my3-135" edge="1">
          <mxGeometry width="160" relative="1" as="geometry">
            <mxPoint x="400" y="560" as="sourcePoint" />
            <mxPoint x="300" y="700" as="targetPoint" />
            <Array as="points">
              <mxPoint x="338" y="745" />
            </Array>
          </mxGeometry>
        </mxCell>
        <mxCell id="rP92spbpc-29O7Kb0my3-142" value="" style="endArrow=open;endFill=1;endSize=12;html=1;exitX=0.25;exitY=1;exitDx=0;exitDy=0;entryX=1;entryY=0.25;entryDx=0;entryDy=0;" parent="1" source="rP92spbpc-29O7Kb0my3-103" target="rP92spbpc-29O7Kb0my3-136" edge="1">
          <mxGeometry width="160" relative="1" as="geometry">
            <mxPoint x="400" y="560" as="sourcePoint" />
            <mxPoint x="560" y="560" as="targetPoint" />
            <Array as="points">
              <mxPoint x="338" y="832" />
            </Array>
          </mxGeometry>
        </mxCell>
        <mxCell id="rP92spbpc-29O7Kb0my3-143" value="" style="endArrow=open;endFill=1;endSize=12;html=1;exitX=0;exitY=0.5;exitDx=0;exitDy=0;entryX=0.5;entryY=0;entryDx=0;entryDy=0;" parent="1" source="rP92spbpc-29O7Kb0my3-102" target="rP92spbpc-29O7Kb0my3-135" edge="1">
          <mxGeometry width="160" relative="1" as="geometry">
            <mxPoint x="400" y="560" as="sourcePoint" />
            <mxPoint x="560" y="560" as="targetPoint" />
            <Array as="points">
              <mxPoint x="125" y="285" />
            </Array>
          </mxGeometry>
        </mxCell>
        <mxCell id="rP92spbpc-29O7Kb0my3-135" value="Success" style="html=1;opacity=80;" parent="1" vertex="1">
          <mxGeometry x="70" y="720" width="110" height="50" as="geometry" />
        </mxCell>
        <mxCell id="rP92spbpc-29O7Kb0my3-134" value="Presenter" style="shape=umlFrame;whiteSpace=wrap;html=1;width=90;height=30;opacity=80;" parent="1" vertex="1">
          <mxGeometry x="40" y="660" width="170" height="240" as="geometry" />
        </mxCell>
      </root>
    </mxGraphModel>
  </diagram>
</mxfile>
